<svg width="64" height="63" viewBox="0 0 64 63" fill="none" xmlns="http://www.w3.org/2000/svg">
<path d="M22.8373 63C22.6 63 22.3387 62.9781 22.0587 62.9233C8.79733 58.4941 0 46.19 0 32.2642C0 14.4736 14.3547 0 32 0C49.6453 0 64 14.4736 64 32.2642C64 46.2091 55.168 58.4969 42.0267 62.8384C40.5093 63.1479 39.6453 62.7179 39.1653 62.3097C38.5387 61.7783 38.1787 60.9594 38.1787 60.0664L38.1893 58.3572C38.2 56.7712 38.2187 54.369 38.2187 51.6052C38.2187 48.5538 36.9973 47.261 36.624 46.9377C36.216 46.5844 36.0507 46.0147 36.2053 45.4915C36.3627 44.9656 36.808 44.5876 37.3387 44.5273C43.6693 43.8234 50.1413 41.6211 50.1413 30.6481C50.1413 27.8104 49.2027 25.337 47.3547 23.2881C47.0027 22.8991 46.9013 22.3349 47.096 21.8418C47.3653 21.157 48.1067 18.785 47.0667 15.4843C46.1173 15.561 43.9413 16.0376 40.3707 18.4864C40.0507 18.7055 39.648 18.7713 39.28 18.6672C36.976 18.0235 34.512 17.6893 31.9547 17.6729C29.4107 17.6866 26.9493 18.0207 24.648 18.6672C24.2747 18.774 23.88 18.7137 23.5547 18.4891C19.9787 16.054 17.7947 15.5692 16.8133 15.4953C15.688 19.0808 16.68 21.5104 16.8053 21.7925C17.0293 22.2965 16.9333 22.8909 16.5653 23.2936C14.7093 25.337 13.768 27.8104 13.768 30.6509C13.768 41.6293 20.2293 43.8398 26.5493 44.5574C27.0773 44.6177 27.52 44.993 27.6773 45.5161C27.8347 46.0366 27.6773 46.6036 27.272 46.9597C26.8293 47.3486 26.0507 48.2936 25.7813 50.2466C25.7173 50.715 25.4187 51.1177 24.9973 51.3094C23.36 52.049 17.752 54.002 14.384 48.184C14.3733 48.1649 14.1493 47.7704 13.728 47.2993C14.2533 48.0334 14.7947 48.9811 15.2667 50.1864C15.3627 50.4794 16.9253 55.0757 24.0827 53.5007C24.48 53.413 24.8853 53.5171 25.1947 53.7746C25.5067 54.0321 25.6907 54.421 25.6933 54.8347L25.7307 60.0938C25.7307 60.984 25.3707 61.803 24.7413 62.3371C24.3627 62.6603 23.7467 63 22.8373 63ZM32 2.73913C15.8267 2.73913 2.66667 15.9828 2.66667 32.2642C2.66667 45.0012 10.7227 56.2563 22.7147 60.2746C22.8587 60.2965 23.008 60.2472 23.0373 60.228L23.0507 58.5215L23.0373 56.4535C14.792 57.4779 12.776 51.1642 12.7547 51.0957C11.6427 48.269 10.104 47.4445 10.0373 47.4089C9.288 46.9076 7.73067 45.8366 8.176 44.3684C8.576 43.0427 10.216 42.9222 10.8453 42.9277C14.6773 43.1961 16.6107 46.6638 16.6907 46.809C18.56 50.033 21.4107 49.7289 23.28 49.0551C23.4453 48.2909 23.6853 47.5814 23.9973 46.946C17.9147 45.8339 11.1013 42.5086 11.1013 30.6454C11.1013 27.3803 12.0987 24.4933 14.0667 22.061C13.6293 20.59 13.12 17.5496 14.6213 13.6765C14.768 13.293 15.0773 12.9999 15.4587 12.8767C15.976 12.715 18.7813 12.0987 24.5253 15.8705C26.88 15.2652 29.376 14.9529 31.952 14.9365C34.5413 14.9502 37.0347 15.2652 39.392 15.8678C45.1067 12.096 47.9067 12.7096 48.4213 12.8739C48.8053 12.9972 49.112 13.2903 49.2587 13.6737C50.7227 17.4537 50.2667 20.5051 49.8347 22.0473C51.8053 24.4906 52.8027 27.3776 52.8027 30.6481C52.8027 42.5058 45.9867 45.8202 39.8987 46.924C40.536 48.2279 40.8827 49.833 40.8827 51.6052C40.8827 54.38 40.8667 56.7877 40.8533 58.3791L40.8427 60.0664C40.888 60.2143 41.0507 60.2554 41.368 60.1869C53.2453 56.2563 61.3333 45.0176 61.3333 32.2642C61.3333 15.9828 48.1733 2.73913 32 2.73913Z" fill="#E4E4E4"/>
</svg>
