<svg width="239" height="31" viewBox="0 0 239 31" fill="none" xmlns="http://www.w3.org/2000/svg">
<path d="M32.0056 21.2727V30H31V21.2727H32.0056ZM36.5067 30.1364C35.9158 30.1364 35.3973 29.9957 34.9513 29.7145C34.5081 29.4332 34.1615 29.0398 33.9115 28.5341C33.6644 28.0284 33.5408 27.4375 33.5408 26.7614C33.5408 26.0795 33.6644 25.4844 33.9115 24.9759C34.1615 24.4673 34.5081 24.0724 34.9513 23.7912C35.3973 23.5099 35.9158 23.3693 36.5067 23.3693C37.0976 23.3693 37.6147 23.5099 38.0578 23.7912C38.5039 24.0724 38.8505 24.4673 39.0976 24.9759C39.3476 25.4844 39.4726 26.0795 39.4726 26.7614C39.4726 27.4375 39.3476 28.0284 39.0976 28.5341C38.8505 29.0398 38.5039 29.4332 38.0578 29.7145C37.6147 29.9957 37.0976 30.1364 36.5067 30.1364ZM36.5067 29.233C36.9556 29.233 37.3249 29.1179 37.6147 28.8878C37.9044 28.6577 38.1189 28.3551 38.2581 27.9801C38.3973 27.6051 38.4669 27.1989 38.4669 26.7614C38.4669 26.3239 38.3973 25.9162 38.2581 25.5384C38.1189 25.1605 37.9044 24.8551 37.6147 24.6222C37.3249 24.3892 36.9556 24.2727 36.5067 24.2727C36.0578 24.2727 35.6885 24.3892 35.3987 24.6222C35.109 24.8551 34.8945 25.1605 34.7553 25.5384C34.6161 25.9162 34.5465 26.3239 34.5465 26.7614C34.5465 27.1989 34.6161 27.6051 34.7553 27.9801C34.8945 28.3551 35.109 28.6577 35.3987 28.8878C35.6885 29.1179 36.0578 29.233 36.5067 29.233ZM42.2681 30L40.2737 23.4545H41.3306L42.7453 28.4659H42.8135L44.2112 23.4545H45.2851L46.6658 28.4489H46.734L48.1487 23.4545H49.2056L47.2112 30H46.2226L44.7908 24.9716H44.6885L43.2567 30H42.2681Z" fill="white"/>
<path d="M96 30V23.4545H96.9715V24.4773H97.0568C97.1931 24.1278 97.4133 23.8565 97.7173 23.6634C98.0213 23.4673 98.3863 23.3693 98.8125 23.3693C99.2443 23.3693 99.6036 23.4673 99.8906 23.6634C100.18 23.8565 100.406 24.1278 100.568 24.4773H100.636C100.804 24.1392 101.055 23.8707 101.391 23.6719C101.726 23.4702 102.128 23.3693 102.596 23.3693C103.181 23.3693 103.661 23.5526 104.033 23.919C104.405 24.2827 104.59 24.8494 104.59 25.6193V30H103.585V25.6193C103.585 25.1364 103.453 24.7912 103.188 24.5838C102.925 24.3764 102.614 24.2727 102.256 24.2727C101.795 24.2727 101.439 24.4119 101.186 24.6903C100.933 24.9659 100.807 25.3153 100.807 25.7386V30H99.784V25.517C99.784 25.1449 99.6633 24.8452 99.4218 24.6179C99.1804 24.3878 98.8693 24.2727 98.4886 24.2727C98.2272 24.2727 97.9829 24.3423 97.7556 24.4815C97.5312 24.6207 97.3494 24.8139 97.2102 25.0611C97.0738 25.3054 97.0056 25.5881 97.0056 25.9091V30H96ZM109.174 30.1364C108.544 30.1364 107.999 29.9972 107.541 29.7188C107.087 29.4375 106.737 29.0455 106.49 28.5426C106.245 28.0369 106.122 27.4489 106.122 26.7784C106.122 26.108 106.245 25.517 106.49 25.0057C106.737 24.4915 107.081 24.0909 107.521 23.804C107.964 23.5142 108.48 23.3693 109.071 23.3693C109.412 23.3693 109.749 23.4261 110.081 23.5398C110.414 23.6534 110.717 23.8381 110.99 24.0938C111.263 24.3466 111.479 24.6818 111.641 25.0994C111.803 25.517 111.884 26.0312 111.884 26.642V27.0682H106.839V26.1989H110.861C110.861 25.8295 110.787 25.5 110.639 25.2102C110.494 24.9205 110.288 24.6918 110.018 24.5241C109.751 24.3565 109.435 24.2727 109.071 24.2727C108.671 24.2727 108.325 24.3722 108.032 24.571C107.743 24.767 107.519 25.0227 107.362 25.3381C107.206 25.6534 107.129 25.9915 107.129 26.3523V26.9318C107.129 27.4261 107.213 27.8452 107.384 28.1889C107.557 28.5298 107.797 28.7898 108.104 28.9688C108.411 29.1449 108.768 29.233 109.174 29.233C109.439 29.233 109.676 29.196 109.889 29.1222C110.105 29.0455 110.292 28.9318 110.449 28.7812C110.605 28.6278 110.726 28.4375 110.811 28.2102L111.782 28.483C111.68 28.8125 111.507 29.1023 111.266 29.3523C111.024 29.5994 110.726 29.7926 110.371 29.9318C110.016 30.0682 109.618 30.1364 109.174 30.1364ZM115.885 30.1364C115.34 30.1364 114.858 29.9986 114.441 29.723C114.023 29.4446 113.696 29.0526 113.46 28.5469C113.225 28.0384 113.107 27.4375 113.107 26.7443C113.107 26.0568 113.225 25.4602 113.46 24.9545C113.696 24.4489 114.024 24.0582 114.445 23.7827C114.865 23.5071 115.351 23.3693 115.902 23.3693C116.328 23.3693 116.665 23.4403 116.912 23.5824C117.162 23.7216 117.352 23.8807 117.483 24.0597C117.617 24.2358 117.72 24.3807 117.794 24.4943H117.88V21.2727H118.885V30H117.914V28.9943H117.794C117.72 29.1136 117.615 29.2642 117.479 29.446C117.342 29.625 117.149 29.7855 116.896 29.9276C116.643 30.0668 116.306 30.1364 115.885 30.1364ZM116.021 29.233C116.425 29.233 116.766 29.1278 117.044 28.9176C117.323 28.7045 117.534 28.4105 117.679 28.0355C117.824 27.6577 117.896 27.2216 117.896 26.7273C117.896 26.2386 117.825 25.8111 117.683 25.4446C117.541 25.0753 117.331 24.7884 117.053 24.5838C116.774 24.3764 116.431 24.2727 116.021 24.2727C115.595 24.2727 115.24 24.3821 114.956 24.6009C114.675 24.8168 114.463 25.1108 114.321 25.483C114.182 25.8523 114.112 26.267 114.112 26.7273C114.112 27.1932 114.184 27.6165 114.326 27.9972C114.471 28.375 114.683 28.6761 114.965 28.9006C115.249 29.1222 115.601 29.233 116.021 29.233ZM120.868 30V23.4545H121.872V30H120.868ZM121.379 22.3636C121.183 22.3636 121.013 22.2969 120.871 22.1634C120.732 22.0298 120.662 21.8693 120.662 21.6818C120.662 21.4943 120.732 21.3338 120.871 21.2003C121.013 21.0668 121.183 21 121.379 21C121.575 21 121.743 21.0668 121.882 21.2003C122.024 21.3338 122.094 21.4943 122.094 21.6818C122.094 21.8693 122.024 22.0298 121.882 22.1634C121.743 22.2969 121.575 22.3636 121.379 22.3636ZM127.84 27.3239V23.4545H128.845V30H127.84V28.892H127.771C127.618 29.2244 127.379 29.5071 127.055 29.7401C126.731 29.9702 126.322 30.0852 125.828 30.0852C125.419 30.0852 125.055 29.9957 124.737 29.8168C124.419 29.6349 124.169 29.3622 123.987 28.9986C123.805 28.6321 123.715 28.1705 123.715 27.6136V23.4545H124.72V27.5455C124.72 28.0227 124.854 28.4034 125.121 28.6875C125.39 28.9716 125.734 29.1136 126.152 29.1136C126.402 29.1136 126.656 29.0497 126.915 28.9219C127.176 28.794 127.395 28.598 127.571 28.3338C127.75 28.0696 127.84 27.733 127.84 27.3239ZM130.688 30V23.4545H131.66V24.4773H131.744C131.88 24.1278 132.1 23.8565 132.404 23.6634C132.708 23.4673 133.073 23.3693 133.499 23.3693C133.931 23.3693 134.291 23.4673 134.578 23.6634C134.867 23.8565 135.093 24.1278 135.255 24.4773H135.324C135.492 24.1392 135.742 23.8707 136.078 23.6719C136.413 23.4702 136.816 23.3693 137.285 23.3693C137.87 23.3693 138.348 23.5526 138.721 23.919C139.093 24.2827 139.279 24.8494 139.279 25.6193V30H138.272V25.6193C138.272 25.1364 138.14 24.7912 137.876 24.5838C137.612 24.3764 137.301 24.2727 136.943 24.2727C136.482 24.2727 136.127 24.4119 135.874 24.6903C135.621 24.9659 135.494 25.3153 135.494 25.7386V30H134.471V25.517C134.471 25.1449 134.35 24.8452 134.109 24.6179C133.867 24.3878 133.556 24.2727 133.176 24.2727C132.914 24.2727 132.67 24.3423 132.443 24.4815C132.218 24.6207 132.036 24.8139 131.897 25.0611C131.761 25.3054 131.693 25.5881 131.693 25.9091V30H130.688Z" fill="white"/>
<path d="M182.079 29.7273V21H183.084V24.2216H183.17C183.244 24.108 183.346 23.9631 183.477 23.787C183.61 23.608 183.8 23.4489 184.048 23.3097C184.298 23.1676 184.636 23.0966 185.062 23.0966C185.613 23.0966 186.099 23.2344 186.519 23.51C186.94 23.7855 187.268 24.1762 187.504 24.6818C187.739 25.1875 187.857 25.7841 187.857 26.4716C187.857 27.1648 187.739 27.7657 187.504 28.2742C187.268 28.7799 186.941 29.1719 186.523 29.4503C186.106 29.7259 185.624 29.8637 185.079 29.8637C184.658 29.8637 184.322 29.7941 184.069 29.6549C183.816 29.5128 183.621 29.3523 183.485 29.1733C183.349 28.9915 183.244 28.8409 183.17 28.7216H183.05V29.7273H182.079ZM183.067 26.4546C183.067 26.9489 183.14 27.385 183.285 27.7628C183.43 28.1378 183.641 28.4318 183.92 28.6449C184.198 28.8551 184.539 28.9603 184.942 28.9603C185.363 28.9603 185.714 28.8495 185.995 28.6279C186.279 28.4034 186.492 28.1023 186.634 27.7245C186.779 27.3438 186.852 26.9205 186.852 26.4546C186.852 25.9943 186.781 25.5796 186.638 25.2103C186.499 24.8381 186.288 24.5441 186.004 24.3282C185.722 24.1094 185.369 24 184.942 24C184.533 24 184.19 24.1037 183.911 24.3111C183.633 24.5157 183.423 24.8026 183.281 25.1719C183.138 25.5384 183.067 25.9659 183.067 26.4546ZM190.401 21V29.7273H189.396V21H190.401ZM194.902 29.8637C194.311 29.8637 193.793 29.723 193.347 29.4418C192.904 29.1605 192.557 28.7671 192.307 28.2614C192.06 27.7557 191.936 27.1648 191.936 26.4887C191.936 25.8068 192.06 25.2117 192.307 24.7032C192.557 24.1946 192.904 23.7997 193.347 23.5185C193.793 23.2372 194.311 23.0966 194.902 23.0966C195.493 23.0966 196.01 23.2372 196.453 23.5185C196.899 23.7997 197.246 24.1946 197.493 24.7032C197.743 25.2117 197.868 25.8068 197.868 26.4887C197.868 27.1648 197.743 27.7557 197.493 28.2614C197.246 28.7671 196.899 29.1605 196.453 29.4418C196.01 29.723 195.493 29.8637 194.902 29.8637ZM194.902 28.9603C195.351 28.9603 195.721 28.8452 196.01 28.6151C196.3 28.385 196.515 28.0824 196.654 27.7074C196.793 27.3324 196.863 26.9262 196.863 26.4887C196.863 26.0512 196.793 25.6435 196.654 25.2657C196.515 24.8878 196.3 24.5824 196.01 24.3495C195.721 24.1165 195.351 24 194.902 24C194.453 24 194.084 24.1165 193.794 24.3495C193.505 24.5824 193.29 24.8878 193.151 25.2657C193.012 25.6435 192.942 26.0512 192.942 26.4887C192.942 26.9262 193.012 27.3324 193.151 27.7074C193.29 28.0824 193.505 28.385 193.794 28.6151C194.084 28.8452 194.453 28.9603 194.902 28.9603ZM202.062 29.8637C201.449 29.8637 200.92 29.7188 200.477 29.429C200.034 29.1392 199.693 28.7401 199.455 28.2316C199.216 27.723 199.097 27.1421 199.097 26.4887C199.097 25.8239 199.219 25.2372 199.463 24.7287C199.71 24.2174 200.054 23.8182 200.494 23.5313C200.937 23.2415 201.455 23.0966 202.045 23.0966C202.506 23.0966 202.92 23.1818 203.29 23.3523C203.659 23.5228 203.962 23.7614 204.197 24.0682C204.433 24.375 204.58 24.733 204.636 25.1421H203.631C203.554 24.8438 203.384 24.5796 203.119 24.3495C202.858 24.1165 202.506 24 202.062 24C201.67 24 201.327 24.1023 201.031 24.3068C200.739 24.5085 200.51 24.7941 200.345 25.1634C200.183 25.5299 200.102 25.9603 200.102 26.4546C200.102 26.9603 200.182 27.4006 200.341 27.7756C200.503 28.1506 200.73 28.4418 201.023 28.6492C201.318 28.8566 201.665 28.9603 202.062 28.9603C202.324 28.9603 202.561 28.9148 202.774 28.8239C202.987 28.733 203.168 28.6023 203.315 28.4318C203.463 28.2614 203.568 28.0568 203.631 27.8182H204.636C204.58 28.2046 204.439 28.5526 204.214 28.8622C203.993 29.1691 203.699 29.4134 203.332 29.5952C202.969 29.7742 202.545 29.8637 202.062 29.8637ZM207.044 27.3409L207.027 26.0966H207.232L210.095 23.1818H211.339L208.288 26.2671H208.203L207.044 27.3409ZM206.107 29.7273V21H207.112V29.7273H206.107ZM210.266 29.7273L207.709 26.4887L208.425 25.7898L211.544 29.7273H210.266ZM215.109 29.8637C214.478 29.8637 213.934 29.7245 213.477 29.4461C213.022 29.1648 212.671 28.7728 212.424 28.2699C212.18 27.7642 212.058 27.1762 212.058 26.5057C212.058 25.8353 212.18 25.2443 212.424 24.733C212.671 24.2188 213.015 23.8182 213.455 23.5313C213.898 23.2415 214.415 23.0966 215.006 23.0966C215.347 23.0966 215.684 23.1534 216.016 23.2671C216.349 23.3807 216.651 23.5654 216.924 23.8211C217.197 24.0739 217.414 24.4091 217.576 24.8267C217.738 25.2443 217.819 25.7585 217.819 26.3693V26.7955H212.773V25.9262H216.796C216.796 25.5568 216.722 25.2273 216.575 24.9375C216.43 24.6478 216.222 24.4191 215.952 24.2514C215.685 24.0838 215.37 24 215.006 24C214.606 24 214.259 24.0995 213.967 24.2983C213.677 24.4943 213.454 24.75 213.298 25.0654C213.141 25.3807 213.063 25.7188 213.063 26.0796V26.6591C213.063 27.1534 213.148 27.5725 213.319 27.9162C213.492 28.2571 213.732 28.5171 214.039 28.6961C214.346 28.8722 214.702 28.9603 215.109 28.9603C215.373 28.9603 215.611 28.9233 215.825 28.8495C216.04 28.7728 216.227 28.6591 216.383 28.5085C216.539 28.3551 216.66 28.1648 216.745 27.9375L217.717 28.2103C217.614 28.5398 217.442 28.8296 217.201 29.0796C216.96 29.3267 216.661 29.5199 216.306 29.6591C215.951 29.7955 215.552 29.8637 215.109 29.8637ZM219.349 29.7273V23.1818H220.32V24.1705H220.388C220.508 23.8466 220.724 23.5838 221.036 23.3821C221.349 23.1804 221.701 23.0796 222.093 23.0796C222.167 23.0796 222.259 23.081 222.37 23.0838C222.481 23.0867 222.565 23.0909 222.621 23.0966V24.1193C222.587 24.1108 222.509 24.098 222.387 24.081C222.268 24.0611 222.141 24.0512 222.008 24.0512C221.69 24.0512 221.406 24.1179 221.156 24.2514C220.908 24.3821 220.712 24.5639 220.567 24.7969C220.425 25.027 220.354 25.2898 220.354 25.5853V29.7273H219.349Z" fill="white"/>
<path d="M4 4C2.067 4 0.5 5.567 0.5 7.5C0.5 9.433 2.067 11 4 11L4 4ZM4 11L167 11V4L4 4L4 11Z" fill="#4CDD49"/>
<path d="M235 11C236.933 11 238.5 9.433 238.5 7.5C238.5 5.567 236.933 4 235 4V11ZM167 11L235 11V4L167 4V11Z" fill="#5E5E5E"/>
<g filter="url(#filter0_d_117_54)">
<path d="M41 5V11" stroke="white" stroke-width="3" stroke-linecap="round"/>
</g>
<g filter="url(#filter1_d_117_54)">
<path d="M118 5V11" stroke="white" stroke-width="3" stroke-linecap="round"/>
</g>
<g filter="url(#filter2_d_117_54)">
<path d="M202 4V11" stroke="white" stroke-width="3" stroke-linecap="round"/>
</g>
<defs>
<filter id="filter0_d_117_54" x="37.5" y="1.5" width="7" height="13" filterUnits="userSpaceOnUse" color-interpolation-filters="sRGB">
<feFlood flood-opacity="0" result="BackgroundImageFix"/>
<feColorMatrix in="SourceAlpha" type="matrix" values="0 0 0 0 0 0 0 0 0 0 0 0 0 0 0 0 0 0 127 0" result="hardAlpha"/>
<feOffset/>
<feGaussianBlur stdDeviation="1"/>
<feComposite in2="hardAlpha" operator="out"/>
<feColorMatrix type="matrix" values="0 0 0 0 1 0 0 0 0 1 0 0 0 0 1 0 0 0 0.2 0"/>
<feBlend mode="normal" in2="BackgroundImageFix" result="effect1_dropShadow_117_54"/>
<feBlend mode="normal" in="SourceGraphic" in2="effect1_dropShadow_117_54" result="shape"/>
</filter>
<filter id="filter1_d_117_54" x="114.5" y="1.5" width="7" height="13" filterUnits="userSpaceOnUse" color-interpolation-filters="sRGB">
<feFlood flood-opacity="0" result="BackgroundImageFix"/>
<feColorMatrix in="SourceAlpha" type="matrix" values="0 0 0 0 0 0 0 0 0 0 0 0 0 0 0 0 0 0 127 0" result="hardAlpha"/>
<feOffset/>
<feGaussianBlur stdDeviation="1"/>
<feComposite in2="hardAlpha" operator="out"/>
<feColorMatrix type="matrix" values="0 0 0 0 1 0 0 0 0 1 0 0 0 0 1 0 0 0 0.2 0"/>
<feBlend mode="normal" in2="BackgroundImageFix" result="effect1_dropShadow_117_54"/>
<feBlend mode="normal" in="SourceGraphic" in2="effect1_dropShadow_117_54" result="shape"/>
</filter>
<filter id="filter2_d_117_54" x="198.5" y="0.5" width="7" height="14" filterUnits="userSpaceOnUse" color-interpolation-filters="sRGB">
<feFlood flood-opacity="0" result="BackgroundImageFix"/>
<feColorMatrix in="SourceAlpha" type="matrix" values="0 0 0 0 0 0 0 0 0 0 0 0 0 0 0 0 0 0 127 0" result="hardAlpha"/>
<feOffset/>
<feGaussianBlur stdDeviation="1"/>
<feComposite in2="hardAlpha" operator="out"/>
<feColorMatrix type="matrix" values="0 0 0 0 1 0 0 0 0 1 0 0 0 0 1 0 0 0 0.2 0"/>
<feBlend mode="normal" in2="BackgroundImageFix" result="effect1_dropShadow_117_54"/>
<feBlend mode="normal" in="SourceGraphic" in2="effect1_dropShadow_117_54" result="shape"/>
</filter>
</defs>
</svg>
