<svg width="68" height="68" viewBox="0 0 68 68" fill="none" xmlns="http://www.w3.org/2000/svg">
<g clip-path="url(#clip0_59_59)">
<path d="M34 68C15.2518 68 0 52.7482 0 34C0 15.2518 15.2518 0 34 0C52.7482 0 68 15.2518 68 34C68 52.7482 52.7482 68 34 68ZM34 2.83333C16.8158 2.83333 2.83333 16.8158 2.83333 34C2.83333 51.1842 16.8158 65.1667 34 65.1667C51.1842 65.1667 65.1667 51.1842 65.1667 34C65.1667 16.8158 51.1842 2.83333 34 2.83333Z" fill="#E4E4E4"/>
<path d="M26.9166 50.9999C26.7353 50.9999 26.5483 50.9659 26.3755 50.8923C25.8456 50.6741 25.5 50.1556 25.5 49.5833V41.0833C25.5 40.7064 25.6501 40.3466 25.9136 40.0803L32.6003 33.3936L21.9498 39.4768C21.4936 39.7374 20.9326 39.7233 20.485 39.4399L11.985 34.0198C11.5345 33.7336 11.2851 33.2179 11.3361 32.6881C11.39 32.1583 11.7356 31.7021 12.2286 31.5066L49.062 17.0934C49.5465 16.9121 50.082 16.9943 50.4786 17.3201C50.8781 17.6459 51.0651 18.1616 50.9745 18.6688L45.3078 49.8354C45.2285 50.2746 44.9451 50.6514 44.5456 50.8498C44.1461 51.0481 43.6758 51.0481 43.2791 50.8498L32.8581 45.6393L27.914 50.5834C27.6476 50.8554 27.285 50.9999 26.9166 50.9999ZM32.5833 42.4999C32.7986 42.4999 33.014 42.5481 33.218 42.6501L42.8598 47.4724L47.736 20.6606L15.861 33.1329L21.2925 36.5953L40.3806 25.6869C40.9983 25.3384 41.7803 25.4943 42.211 26.0553C42.6416 26.6191 42.5878 27.4153 42.0863 27.9168L28.3333 41.6698V46.1634L31.5803 42.9164C31.8523 42.6416 32.215 42.4999 32.5833 42.4999Z" fill="#E4E4E4"/>
</g>
<defs>
<clipPath id="clip0_59_59">
<rect width="68" height="68" fill="white"/>
</clipPath>
</defs>
</svg>
