<svg width="64" height="65" viewBox="0 0 64 65" fill="none" xmlns="http://www.w3.org/2000/svg">
<path fill-rule="evenodd" clip-rule="evenodd" d="M54.4063 10.0749C48.637 4.30661 40.6801 0.741577 31.8754 0.741577C23.0708 0.741577 15.1137 4.30661 9.3444 10.0748C3.57559 15.8448 0.0112305 23.8194 0.0112305 32.6058C0.0112305 41.4104 3.57559 49.3673 9.3444 55.1375C15.1137 60.9063 23.0708 64.4705 31.8754 64.4705C40.6801 64.4705 48.637 60.9061 54.4063 55.1375C60.1751 49.3673 63.7402 41.4104 63.7402 32.6058C63.7402 23.8195 60.1753 15.8449 54.4063 10.0749ZM52.6424 53.39C47.3311 58.7006 39.9912 61.9828 31.8754 61.9828C23.7595 61.9828 16.4196 58.7006 11.1083 53.39C5.78123 48.0617 2.49907 40.7223 2.49907 32.6059C2.49907 24.4906 5.78123 17.1506 11.1083 11.84C16.4196 6.52925 23.7595 3.22956 31.8754 3.22956C39.9912 3.22956 47.3311 6.52938 52.6424 11.84C57.9702 17.1506 61.251 24.4906 61.251 32.6059C61.251 40.7223 57.9702 48.0617 52.6424 53.39Z" fill="#E4E4E4"/>
<path fill-rule="evenodd" clip-rule="evenodd" d="M49.501 23.7315C49.0248 23.379 47.3136 23.379 45.6199 23.379C43.8906 23.4142 42.1611 23.4142 41.7551 23.5732C41.3857 23.7141 40.5562 25.7255 39.4803 27.7892C38.2442 30.1193 36.7454 32.3773 35.7922 32.3407C34.5398 32.3407 34.8402 28.5125 34.9281 25.6727C34.9451 23.8195 34.6454 23.2192 34.3808 23.0616C33.7278 22.6022 31.9287 22.1624 31.9287 22.1624C31.9287 22.1624 26.5287 21.7557 25.7709 24.0847C26.8116 24.226 28.5762 23.9076 27.888 31.1236C27.8353 31.4774 27.0585 34.4409 24.5531 30.4355C23.9178 29.4307 21.519 23.4142 20.672 23.379C17.9008 23.3256 15.1496 23.2024 14.1976 23.7315C13.2971 24.2612 15.3966 28.3892 18.9433 33.93C21.8183 38.4815 24.871 42.0108 30.1641 42.8924C31.1696 42.9992 33.7462 43.1036 34.5757 42.7164C35.1216 42.4512 34.4337 38.5351 36.3219 38.1459C37.1514 37.9878 40.379 42.2401 41.5962 42.7164C42.3391 43.0162 43.9616 43.1394 45.6199 43.0682C47.4197 43.0161 49.4651 43.2455 49.6593 42.0107C50.1011 39.311 44.2091 35.7812 44.0496 34.1234C43.9082 32.9238 46.2025 30.7186 47.3663 29.0244C48.8123 26.9778 50.4016 24.5081 49.501 23.7315Z" fill="#E4E4E4"/>
</svg>
